<svg width="24" height="24" viewBox="0 0 24 24" fill="none" xmlns="http://www.w3.org/2000/svg">
<mask id="mask0_1111_19856" style="mask-type:alpha" maskUnits="userSpaceOnUse" x="3" y="6" width="18" height="13">
<rect x="3" y="6" width="18" height="13" rx="1.6" fill="#D9D9D9"/>
</mask>
<g mask="url(#mask0_1111_19856)">
<path fill-rule="evenodd" clip-rule="evenodd" d="M10.4951 13.9565L0.742188 5.52801L1.6576 4.46875L11.4106 12.8972C11.749 13.1897 12.2509 13.1896 12.5884 12.898L22.3422 4.46875L23.2576 5.52801L13.5038 13.9572C12.6396 14.704 11.3584 14.7025 10.4951 13.9565Z" fill="#2DCBC2"/>
</g>
<path fill-rule="evenodd" clip-rule="evenodd" d="M2.2998 7.60078C2.2998 6.33053 3.32955 5.30078 4.5998 5.30078H19.3998C20.6701 5.30078 21.6998 6.33053 21.6998 7.60078V17.4008C21.6998 18.671 20.6701 19.7008 19.3998 19.7008H4.5998C3.32955 19.7008 2.2998 18.671 2.2998 17.4008V7.60078ZM4.5998 6.70078C4.10275 6.70078 3.6998 7.10373 3.6998 7.60078V17.4008C3.6998 17.8978 4.10275 18.3008 4.5998 18.3008H19.3998C19.8969 18.3008 20.2998 17.8978 20.2998 17.4008V7.60078C20.2998 7.10372 19.8969 6.70078 19.3998 6.70078H4.5998Z" fill="#2DCBC2"/>
</svg>
