<svg width="40" height="40" viewBox="0 0 40 40" fill="none" xmlns="http://www.w3.org/2000/svg">
<path fill-rule="evenodd" clip-rule="evenodd" d="M20 40C31.0457 40 40 31.0457 40 20C40 8.9543 31.0457 0 20 0C8.9543 0 0 8.9543 0 20C0 31.0457 8.9543 40 20 40ZM26.9727 30C27.0029 30.5515 27.4477 31 28 31H30C30.5523 31 31.0024 30.5513 30.9777 29.9996C30.4695 18.6453 21.3547 9.5305 10.0004 9.02234C9.44869 8.99765 9 9.44772 9 10V12C9 12.5523 9.4485 12.9971 9.99996 13.0273C19.145 13.528 26.472 20.855 26.9727 30ZM20.7778 31.0001C20.2255 31.0001 19.7826 30.5509 19.7321 30.001C19.2582 24.846 15.1541 20.7419 9.99913 20.268C9.44916 20.2175 9 19.7746 9 19.2223V17.2223C9 16.67 9.44914 16.2188 10.0002 16.2556C17.3648 16.7478 23.2523 22.6353 23.7445 29.9999C23.7813 30.551 23.3301 31.0001 22.7778 31.0001H20.7778ZM12.0556 31.0006C13.7431 31.0006 15.1111 29.6326 15.1111 27.945C15.1111 26.2575 13.7431 24.8895 12.0556 24.8895C10.368 24.8895 9 26.2575 9 27.945C9 29.6326 10.368 31.0006 12.0556 31.0006Z" fill="#B2B7C2"/>
</svg>
