<svg width="24" height="24" viewBox="0 0 24 24" fill="none" xmlns="http://www.w3.org/2000/svg">
<path fill-rule="evenodd" clip-rule="evenodd" d="M10.5 17.5C14.366 17.5 17.5 14.366 17.5 10.5C17.5 6.63401 14.366 3.5 10.5 3.5C6.63401 3.5 3.5 6.63401 3.5 10.5C3.5 14.366 6.63401 17.5 10.5 17.5ZM10.5 20C15.7467 20 20 15.7467 20 10.5C20 5.25329 15.7467 1 10.5 1C5.25329 1 1 5.25329 1 10.5C1 15.7467 5.25329 20 10.5 20Z" fill="#2DCBC2"/>
<path d="M15.8839 17.2979C15.3957 16.8098 15.3957 16.0183 15.8839 15.5302C16.372 15.042 17.1635 15.042 17.6516 15.5302L22.2478 20.1264C22.736 20.6145 22.736 21.406 22.2478 21.8941C21.7597 22.3823 20.9682 22.3823 20.4801 21.8941L15.8839 17.2979Z" fill="#2DCBC2"/>
</svg>
