<svg width="141" height="21" viewBox="0 0 141 21" fill="none" xmlns="http://www.w3.org/2000/svg">
<g clip-path="url(#clip0_1101_12627)">
<path d="M33.8853 1.17188H22.1264C22.0362 1.17157 21.9469 1.1898 21.864 1.22544C21.7812 1.26108 21.7066 1.31337 21.6448 1.37907L18.3803 4.82274L15.1018 1.37907C15.04 1.31337 14.9654 1.26108 14.8826 1.22544C14.7997 1.1898 14.7104 1.17157 14.6202 1.17188H3.74605C3.65555 1.17216 3.56604 1.19066 3.48283 1.22625C3.39962 1.26185 3.32442 1.31381 3.2617 1.37907L0.18199 4.63796C0.064996 4.7622 -0.000110899 4.92646 1.41804e-07 5.09712V19.1462C1.41804e-07 19.2569 0.0439654 19.363 0.122198 19.4412C0.200431 19.5194 0.306538 19.5634 0.417176 19.5634H5.42309C5.47798 19.5637 5.5324 19.5532 5.58318 19.5324C5.63396 19.5115 5.6801 19.4808 5.71891 19.442C5.75772 19.4032 5.78844 19.3571 5.80927 19.3063C5.8301 19.2555 5.84064 19.2011 5.84027 19.1462V7.77927C5.84101 7.59709 5.91389 7.42263 6.04297 7.29407C6.17205 7.16551 6.34681 7.09333 6.52899 7.09334H11.8653C12.0472 7.09334 12.2217 7.1656 12.3503 7.29424C12.479 7.42288 12.5512 7.59734 12.5512 7.77927V19.1462C12.5512 19.2569 12.5952 19.363 12.6734 19.4412C12.7517 19.5194 12.8578 19.5634 12.9684 19.5634H17.9771C18.0853 19.5597 18.1879 19.5142 18.2631 19.4363C18.3383 19.3585 18.3804 19.2545 18.3803 19.1462V15.9209L21.656 19.359C21.7182 19.4239 21.793 19.4755 21.8758 19.5106C21.9586 19.5458 22.0476 19.5637 22.1375 19.5634H33.8965C34.0071 19.5634 34.1132 19.5194 34.1914 19.4412C34.2697 19.363 34.3136 19.2569 34.3136 19.1462V14.1403C34.3136 14.0296 34.2697 13.9235 34.1914 13.8453C34.1132 13.7671 34.0071 13.7231 33.8965 13.7231H24.9037C24.8134 13.7231 24.7239 13.7053 24.6405 13.6706C24.5571 13.636 24.4814 13.5852 24.4177 13.5212C24.3539 13.4572 24.3035 13.3813 24.2692 13.2977C24.2349 13.2142 24.2174 13.1247 24.2177 13.0344V7.70087C24.2177 7.51869 24.2899 7.34393 24.4185 7.21485C24.547 7.08577 24.7215 7.01288 24.9037 7.01214H33.8853C33.94 7.01214 33.9943 7.00135 34.0449 6.98038C34.0955 6.95942 34.1415 6.9287 34.1802 6.88996C34.219 6.85122 34.2497 6.80523 34.2707 6.75462C34.2916 6.70401 34.3024 6.64976 34.3024 6.59498V1.58905C34.3024 1.47841 34.2585 1.3723 34.1802 1.29407C34.102 1.21584 33.9959 1.17188 33.8853 1.17188Z" fill="black"/>
<path d="M48.4808 11.4398C49.5387 11.1216 50.4681 10.4755 51.135 9.59479C51.8036 8.67619 52.1474 7.56111 52.1121 6.42548C52.1202 5.67737 51.9764 4.93539 51.6893 4.24448C51.4233 3.60549 51.021 3.03221 50.5107 2.56464C49.9804 2.09173 49.362 1.72826 48.6908 1.49513C47.9307 1.23443 47.1314 1.10658 46.3278 1.11717H39.6589C39.6206 1.1102 39.5812 1.11263 39.544 1.12423C39.5068 1.13584 39.4731 1.15629 39.4455 1.18381C39.418 1.21134 39.3976 1.24512 39.3859 1.28227C39.3743 1.31943 39.3719 1.35884 39.3789 1.39714V19.2791C39.3719 19.3174 39.3743 19.3568 39.3859 19.394C39.3976 19.4311 39.418 19.4649 39.4455 19.4924C39.4731 19.5199 39.5068 19.5404 39.544 19.552C39.5812 19.5636 39.6206 19.566 39.6589 19.5591H41.5515C41.5899 19.5667 41.6296 19.5648 41.6671 19.5534C41.7046 19.5421 41.7387 19.5217 41.7664 19.494C41.7941 19.4663 41.8145 19.4322 41.8258 19.3947C41.8372 19.3572 41.8391 19.3175 41.8315 19.2791V11.899C41.8282 11.8769 41.8301 11.8543 41.8371 11.8331C41.844 11.8119 41.8559 11.7926 41.8717 11.7768C41.8875 11.761 41.9068 11.7492 41.928 11.7422C41.9492 11.7352 41.9718 11.7333 41.9939 11.7366H46.0451L49.7155 19.2679C49.7359 19.3476 49.7822 19.4183 49.847 19.4689C49.9118 19.5196 49.9916 19.5473 50.0739 19.5479H52.2577C52.2952 19.5517 52.333 19.5447 52.3667 19.5279C52.4004 19.511 52.4286 19.485 52.4481 19.4527C52.465 19.4155 52.4714 19.3744 52.4665 19.3339C52.4615 19.2934 52.4455 19.255 52.4201 19.2231L48.4808 11.4398ZM41.9771 9.48C41.9551 9.48272 41.9328 9.48039 41.9118 9.4732C41.8909 9.466 41.8718 9.45411 41.8562 9.43846C41.8405 9.4228 41.8287 9.40377 41.8215 9.38283C41.8143 9.36189 41.8119 9.33958 41.8147 9.31761V3.52775C41.8114 3.50566 41.8133 3.4831 41.8203 3.46189C41.8272 3.44068 41.8391 3.42139 41.8549 3.4056C41.8707 3.38981 41.89 3.37794 41.9112 3.37095C41.9324 3.36396 41.955 3.36205 41.9771 3.36537H46.2718C47.3488 3.36537 48.1887 3.63133 48.7916 4.16329C49.3945 4.69524 49.6922 5.4493 49.6847 6.42548C49.6847 7.40352 49.387 8.15758 48.7916 8.68767C48.1962 9.21775 47.3563 9.48466 46.2718 9.4884L41.9771 9.48Z" fill="black"/>
<path d="M65.0599 11.1942C65.0235 10.9142 64.9843 10.6343 64.9395 10.4243C64.8953 10.1995 64.8364 9.97785 64.7632 9.76075C64.4506 8.70699 63.7854 7.79267 62.8789 7.17099C61.9264 6.54982 60.8072 6.23341 59.6704 6.26387C58.5342 6.23252 57.415 6.54477 56.4591 7.15979C55.5452 7.77867 54.8781 8.69943 54.5749 9.76075C54.4189 10.2026 54.3146 10.6611 54.2641 11.127C54.194 11.761 54.1622 12.3986 54.1689 13.0364C54.1614 13.6709 54.1979 14.3052 54.2781 14.9347C54.3412 15.4042 54.45 15.8665 54.6029 16.3149C54.9089 17.3779 55.5738 18.3019 56.4843 18.9299C57.4738 19.5614 58.6317 19.8777 59.8048 19.837C60.8367 19.8594 61.8601 19.6469 62.7977 19.2155C63.5997 18.8437 64.3085 18.2975 64.8724 17.6168C64.898 17.5912 64.9178 17.5604 64.9305 17.5264C64.9431 17.4924 64.9483 17.4562 64.9456 17.42C64.9429 17.3839 64.9325 17.3487 64.915 17.317C64.8976 17.2852 64.8734 17.2576 64.8443 17.236L63.7245 16.2337C63.5985 16.1274 63.4613 16.1441 63.3185 16.2897C62.9396 16.7189 62.4789 17.0682 61.9634 17.3172C61.3455 17.6059 60.6685 17.7458 59.9868 17.726C59.2594 17.7496 58.5416 17.5545 57.9262 17.1661C57.338 16.7578 56.908 16.1598 56.7083 15.4722C56.6352 15.2523 56.5808 15.0266 56.5459 14.7975C56.505 14.5006 56.4863 14.2012 56.4899 13.9016C56.4866 13.8795 56.4885 13.8569 56.4955 13.8357C56.5025 13.8145 56.5144 13.7952 56.5302 13.7794C56.546 13.7636 56.5652 13.7518 56.5864 13.7448C56.6077 13.7378 56.6302 13.7359 56.6523 13.7392H64.8639C65.0599 13.7392 65.1607 13.6496 65.1607 13.4592C65.1607 12.972 65.1607 12.5437 65.1327 12.1741C65.1047 11.8046 65.0963 11.4854 65.0599 11.1942ZM62.6773 11.8997H56.6607C56.6386 11.9031 56.6161 11.9011 56.5948 11.8942C56.5736 11.8872 56.5544 11.8753 56.5386 11.8595C56.5228 11.8437 56.5109 11.8244 56.5039 11.8032C56.4969 11.782 56.495 11.7595 56.4983 11.7374C56.4848 11.2469 56.549 10.7574 56.6887 10.2871C56.876 9.68026 57.2627 9.15445 57.7862 8.79483C58.3542 8.45149 59.0053 8.26999 59.669 8.26999C60.3327 8.26999 60.9838 8.45149 61.5519 8.79483C62.0753 9.15445 62.462 9.68026 62.6493 10.2871C62.789 10.7574 62.8533 11.2469 62.8397 11.7374C62.843 11.7595 62.8411 11.782 62.8341 11.8032C62.8271 11.8244 62.8153 11.8437 62.7995 11.8595C62.7837 11.8753 62.7644 11.8872 62.7432 11.8942C62.722 11.9011 62.6994 11.9031 62.6773 11.8997Z" fill="black"/>
<path d="M73.9892 11.9278L72.6285 11.7906C71.6514 11.701 70.9795 11.5107 70.6183 11.2307C70.4366 11.0886 70.292 10.9046 70.197 10.6945C70.1019 10.4843 70.0591 10.2543 70.0724 10.024C70.0681 9.77579 70.1224 9.53008 70.2309 9.3068C70.3394 9.08352 70.4989 8.88896 70.6967 8.73891C71.1111 8.40294 71.727 8.23776 72.5389 8.23776C73.1985 8.23536 73.8536 8.34518 74.4763 8.56253C75.0232 8.74154 75.546 8.98695 76.033 9.29326C76.0913 9.33467 76.1632 9.35224 76.234 9.34235C76.3048 9.33246 76.3691 9.29586 76.4138 9.24006L77.3349 8.07537C77.4441 7.91298 77.4245 7.7954 77.2817 7.69461C76.6764 7.24707 76.0034 6.89924 75.2883 6.66431C74.4451 6.38535 73.5614 6.24816 72.6733 6.25834C71.1391 6.25834 69.952 6.60644 69.112 7.30265C68.2721 7.99885 67.8522 8.96942 67.8522 10.2144C67.8522 11.282 68.177 12.1219 68.8265 12.7341C69.476 13.3463 70.4429 13.7252 71.727 13.8708L73.1073 14.008C74.1208 14.1172 74.7871 14.3188 75.1259 14.6184C75.2932 14.7695 75.4249 14.9559 75.5116 15.1641C75.5982 15.3722 75.6376 15.597 75.627 15.8223C75.6316 16.0981 75.5702 16.3711 75.448 16.6185C75.3258 16.8659 75.1462 17.0805 74.9243 17.2445C74.4539 17.6178 73.74 17.8045 72.7825 17.8045C72.0145 17.8104 71.253 17.6629 70.5427 17.3705C69.8988 17.1138 69.2997 16.7566 68.7677 16.3122C68.7455 16.2826 68.7168 16.2587 68.6837 16.2421C68.6507 16.2256 68.6143 16.217 68.5773 16.217C68.5404 16.217 68.5039 16.2256 68.4709 16.2421C68.4378 16.2587 68.4091 16.2826 68.3869 16.3122L67.267 17.5049C67.2369 17.5267 67.2125 17.5553 67.1956 17.5884C67.1787 17.6215 67.1699 17.6581 67.1699 17.6953C67.1699 17.7324 67.1787 17.769 67.1956 17.8021C67.2125 17.8352 67.2369 17.8638 67.267 17.8857C67.5649 18.1431 67.8822 18.3771 68.2161 18.5856C69.0328 19.1056 69.9367 19.4736 70.8843 19.6719C71.4636 19.791 72.0538 19.8492 72.6453 19.8455C74.3419 19.8455 75.642 19.4572 76.5454 18.6808C76.9887 18.3027 77.3408 17.8293 77.5755 17.2961C77.8101 16.7628 77.9212 16.1833 77.9004 15.6011C77.9223 15.1371 77.8478 14.6736 77.6816 14.2399C77.5153 13.8062 77.261 13.4117 76.9345 13.0813C76.2962 12.4262 75.3107 12.0538 73.9892 11.9278Z" fill="black"/>
<path d="M90.9075 11.1941C90.8711 10.9142 90.8291 10.6342 90.7843 10.4242C90.7396 10.1998 90.6817 9.97822 90.6107 9.76068C90.2961 8.70794 89.6313 7.79425 88.7265 7.17092C87.7731 6.54921 86.6529 6.23277 85.5152 6.2638C84.3791 6.23315 83.26 6.54534 82.3039 7.15972C81.3916 7.77977 80.7258 8.70021 80.4225 9.76068C80.2664 10.2026 80.1621 10.661 80.1117 11.1269C80.0416 11.7609 80.0098 12.3986 80.0165 13.0364C80.0096 13.6708 80.0451 14.3049 80.1229 14.9346C80.1869 15.4043 80.2966 15.8665 80.4504 16.3149C80.7565 17.3778 81.4214 18.3018 82.3319 18.9298C83.3214 19.5613 84.4793 19.8777 85.6524 19.8369C86.6842 19.8591 87.7076 19.6465 88.6453 19.2154C89.4464 18.8436 90.1543 18.2974 90.7171 17.6167C90.7433 17.5916 90.7638 17.561 90.7769 17.5271C90.7901 17.4931 90.7956 17.4568 90.7932 17.4205C90.7908 17.3842 90.7805 17.3489 90.763 17.317C90.7455 17.2851 90.7212 17.2575 90.6919 17.236L89.572 16.2337C89.446 16.1273 89.3088 16.1441 89.166 16.2897C88.7866 16.7182 88.326 17.0675 87.811 17.3172C87.192 17.6057 86.5142 17.7457 85.8316 17.7259C85.1051 17.7489 84.3884 17.5539 83.7737 17.166C83.1856 16.7571 82.7549 16.1594 82.5531 15.4721C82.4812 15.2519 82.4269 15.0263 82.3907 14.7974C82.3509 14.5005 82.3331 14.201 82.3375 13.9015C82.3342 13.8794 82.3361 13.8568 82.3431 13.8356C82.3501 13.8144 82.3619 13.7951 82.3777 13.7794C82.3935 13.7636 82.4128 13.7517 82.434 13.7447C82.4552 13.7377 82.4778 13.7358 82.4999 13.7391H90.7087C90.9075 13.7391 91.0083 13.6495 91.0083 13.4591C91.0083 12.972 91.0083 12.5436 90.9803 12.1741C90.9523 11.8045 90.9439 11.4853 90.9075 11.1941ZM88.5221 11.8997H82.5083C82.4862 11.903 82.4636 11.9011 82.4424 11.8941C82.4212 11.8871 82.4019 11.8752 82.3861 11.8594C82.3703 11.8436 82.3585 11.8244 82.3515 11.8032C82.3445 11.7819 82.3426 11.7594 82.3459 11.7373C82.3323 11.2469 82.3966 10.7574 82.5363 10.287C82.7236 9.68019 83.1103 9.15438 83.6337 8.79477C84.2018 8.45142 84.8529 8.26993 85.5166 8.26993C86.1803 8.26993 86.8314 8.45142 87.3994 8.79477C87.9221 9.15517 88.3086 9.68069 88.4969 10.287C88.6355 10.7575 88.6988 11.247 88.6845 11.7373C88.6878 11.7594 88.6859 11.7819 88.6789 11.8032C88.6719 11.8244 88.6601 11.8436 88.6443 11.8594C88.6285 11.8752 88.6092 11.8871 88.588 11.8941C88.5668 11.9011 88.5442 11.903 88.5221 11.8997Z" fill="black"/>
<path d="M98.6568 6.26685C97.7853 6.25206 96.9166 6.37104 96.0811 6.61962C95.4178 6.81641 94.7942 7.12818 94.2388 7.54073C94.1877 7.58847 94.1544 7.65236 94.1448 7.72169C94.1351 7.79101 94.1495 7.86156 94.1857 7.9215L94.9164 9.16738C95.006 9.31016 95.1348 9.32137 95.2972 9.19258C95.6975 8.91255 96.1347 8.68925 96.5962 8.52904C97.1918 8.34189 97.8144 8.25485 98.4385 8.27147C99.6479 8.27147 100.47 8.46931 100.905 8.86501C101.34 9.26071 101.556 9.90558 101.555 10.7996V11.7403C101.558 11.7624 101.556 11.785 101.549 11.8062C101.542 11.8274 101.53 11.8467 101.514 11.8625C101.499 11.8783 101.479 11.8901 101.458 11.8971C101.437 11.9041 101.414 11.906 101.392 11.9027H98.4525C96.8622 11.9027 95.621 12.2294 94.7288 12.8826C93.8366 13.5359 93.3896 14.5503 93.3877 15.926C93.3745 16.515 93.4901 17.0998 93.7265 17.6394C93.9379 18.1111 94.2527 18.5293 94.6476 18.8629C95.0532 19.1984 95.5228 19.448 96.0279 19.5964C96.5866 19.7625 97.1669 19.8446 97.7497 19.84C98.5887 19.8721 99.4234 19.7052 100.185 19.3528C100.753 19.0799 101.236 18.6592 101.585 18.135H101.611V19.2716C101.604 19.3099 101.606 19.3494 101.618 19.3865C101.629 19.4237 101.65 19.4575 101.677 19.485C101.705 19.5125 101.739 19.5329 101.776 19.5446C101.813 19.5562 101.852 19.5586 101.891 19.5516H103.492C103.53 19.5586 103.57 19.5562 103.607 19.5446C103.644 19.5329 103.678 19.5125 103.705 19.485C103.733 19.4575 103.753 19.4237 103.765 19.3865C103.777 19.3494 103.779 19.3099 103.772 19.2716V10.682C103.772 9.09179 103.384 7.95789 102.607 7.28036C101.831 6.60282 100.514 6.26499 98.6568 6.26685ZM101.555 15.3436C101.573 15.7044 101.503 16.0642 101.352 16.3923C101.201 16.7204 100.973 17.007 100.687 17.2278C100.11 17.6702 99.3064 17.8914 98.2761 17.8914C97.4082 17.8914 96.7418 17.7178 96.2715 17.3762C96.0372 17.2016 95.8501 16.9715 95.7269 16.7066C95.6038 16.4417 95.5484 16.1504 95.5659 15.8588C95.5659 15.1168 95.8207 14.5821 96.3247 14.2461C96.8286 13.9101 97.6545 13.745 98.7912 13.745H101.392C101.414 13.7416 101.437 13.7436 101.458 13.7506C101.479 13.7575 101.499 13.7694 101.514 13.7852C101.53 13.801 101.542 13.8203 101.549 13.8415C101.556 13.8627 101.558 13.8853 101.555 13.9073V15.3436Z" fill="black"/>
<path d="M114.655 6.52223C114.182 6.34873 113.681 6.26149 113.177 6.26465C112.424 6.2359 111.678 6.41925 111.024 6.7938C110.477 7.123 110.033 7.5968 109.739 8.16287H109.711V6.8274C109.718 6.7891 109.715 6.74969 109.704 6.71253C109.692 6.67537 109.672 6.64158 109.644 6.61406C109.617 6.58653 109.583 6.56609 109.546 6.55449C109.508 6.54288 109.469 6.54046 109.431 6.54742H107.698C107.659 6.53975 107.62 6.54168 107.582 6.55304C107.545 6.56439 107.51 6.58483 107.483 6.61252C107.455 6.64022 107.435 6.67431 107.423 6.71179C107.412 6.74928 107.41 6.78899 107.418 6.8274V19.2638C107.41 19.3023 107.412 19.342 107.423 19.3794C107.435 19.4169 107.455 19.451 107.483 19.4787C107.51 19.5064 107.545 19.5268 107.582 19.5382C107.62 19.5496 107.659 19.5515 107.698 19.5438H109.431C109.469 19.5508 109.508 19.5484 109.546 19.5368C109.583 19.5251 109.617 19.5047 109.644 19.4772C109.672 19.4496 109.692 19.4159 109.704 19.3787C109.715 19.3416 109.718 19.3021 109.711 19.2638V12.1721C109.711 11.0335 109.927 10.1171 110.36 9.42275C110.793 8.72842 111.507 8.38032 112.502 8.37846C112.86 8.37483 113.217 8.42968 113.558 8.54084C113.892 8.65467 114.211 8.80986 114.507 9.00279C114.533 9.02903 114.565 9.04877 114.6 9.06041C114.635 9.07205 114.673 9.07528 114.71 9.06984C114.746 9.0644 114.781 9.05044 114.812 9.02907C114.842 9.00771 114.867 8.97953 114.885 8.9468L115.887 7.61972C115.927 7.56167 115.945 7.49041 115.935 7.42027C115.925 7.35014 115.889 7.28635 115.834 7.24176C115.493 6.92547 115.092 6.68079 114.655 6.52223Z" fill="black"/>
<path d="M119.247 10.4101C119.419 9.78916 119.802 9.24764 120.33 8.87861C120.844 8.57743 121.424 8.40648 122.02 8.38062C122.615 8.35475 123.208 8.47477 123.746 8.73022C124.205 9.00464 124.609 9.36265 124.936 9.78573C124.957 9.81525 124.985 9.83974 125.016 9.8575C125.048 9.87526 125.083 9.88585 125.12 9.88852C125.156 9.89119 125.192 9.88587 125.226 9.87295C125.26 9.86003 125.291 9.83982 125.317 9.81373L126.509 8.83942C126.541 8.82126 126.569 8.79653 126.591 8.76686C126.613 8.73719 126.628 8.70325 126.635 8.66727C126.643 8.6313 126.643 8.5941 126.635 8.55815C126.628 8.52219 126.612 8.48828 126.591 8.45865C126.124 7.77658 125.495 7.22215 124.759 6.84601C123.948 6.44445 123.052 6.24467 122.147 6.26365C121.007 6.23398 119.884 6.54599 118.922 7.15957C118.003 7.77512 117.331 8.69668 117.027 9.76054C116.886 10.2175 116.786 10.6859 116.727 11.1604C116.649 11.7844 116.612 12.413 116.618 13.0418C116.612 13.681 116.648 14.3198 116.727 14.954C116.786 15.4286 116.886 15.897 117.027 16.3539C117.332 17.417 118.004 18.3381 118.922 18.9549C119.884 19.5676 121.007 19.8787 122.147 19.848C123.052 19.8679 123.949 19.668 124.759 19.2656C125.495 18.8915 126.125 18.3378 126.591 17.6558C126.612 17.6262 126.628 17.5923 126.635 17.5563C126.643 17.5203 126.643 17.4831 126.635 17.4472C126.628 17.4112 126.613 17.3773 126.591 17.3476C126.569 17.3179 126.541 17.2932 126.509 17.275L125.331 16.2895C125.305 16.2633 125.275 16.2429 125.241 16.2297C125.207 16.2166 125.171 16.211 125.134 16.2134C125.098 16.2158 125.063 16.2261 125.031 16.2436C124.999 16.2611 124.971 16.2854 124.95 16.3147C124.623 16.7393 124.22 17.0984 123.76 17.373C123.222 17.6285 122.629 17.7485 122.034 17.7226C121.438 17.6968 120.858 17.5258 120.344 17.2246C119.816 16.8556 119.433 16.3141 119.261 15.6932C119.146 15.3183 119.069 14.9328 119.031 14.5425C118.983 14.0419 118.96 13.5391 118.964 13.0362C118.96 12.5389 118.983 12.0417 119.031 11.5468C119.065 11.1616 119.137 10.7808 119.247 10.4101Z" fill="black"/>
<path d="M138.769 7.59037C137.974 6.70565 136.873 6.26329 135.465 6.26329C134.689 6.24129 133.919 6.41356 133.226 6.76444C132.662 7.05416 132.185 7.48907 131.845 8.02432H131.817V1.38614C131.825 1.34774 131.823 1.30803 131.812 1.27054C131.8 1.23306 131.78 1.19895 131.752 1.17126C131.725 1.14356 131.69 1.12314 131.653 1.11178C131.616 1.10043 131.576 1.0985 131.537 1.10617H129.81C129.772 1.0985 129.732 1.10043 129.694 1.11178C129.657 1.12314 129.623 1.14356 129.595 1.17126C129.567 1.19895 129.547 1.23306 129.536 1.27054C129.524 1.30803 129.522 1.34774 129.53 1.38614V19.2681C129.522 19.3065 129.524 19.3462 129.536 19.3837C129.547 19.4212 129.567 19.4553 129.595 19.483C129.623 19.5107 129.657 19.5311 129.694 19.5424C129.732 19.5538 129.772 19.5557 129.81 19.5481H131.543C131.581 19.5557 131.621 19.5538 131.659 19.5424C131.696 19.5311 131.73 19.5107 131.758 19.483C131.786 19.4553 131.806 19.4212 131.817 19.3837C131.829 19.3462 131.831 19.3065 131.823 19.2681V11.5464C131.801 11.125 131.863 10.7035 132.004 10.3061C132.146 9.90867 132.365 9.54328 132.649 9.23101C132.93 8.9492 133.267 8.729 133.638 8.58441C134.01 8.43981 134.407 8.37398 134.805 8.39109C135.779 8.39109 136.506 8.6804 136.986 9.25901C137.465 9.83762 137.704 10.6505 137.702 11.6976V19.2821C137.695 19.3205 137.697 19.3602 137.708 19.3977C137.719 19.4352 137.74 19.4693 137.768 19.497C137.795 19.5247 137.829 19.5451 137.867 19.5564C137.904 19.5678 137.944 19.5697 137.982 19.562H139.715C139.754 19.5697 139.794 19.5678 139.831 19.5564C139.869 19.5451 139.903 19.5247 139.93 19.497C139.958 19.4693 139.978 19.4352 139.99 19.3977C140.001 19.3602 140.003 19.3205 139.995 19.2821V11.1628C139.98 9.66777 139.572 8.47695 138.769 7.59037Z" fill="black"/>
</g>
<defs>
<clipPath id="clip0_1101_12627">
<rect width="141" height="21" fill="white"/>
</clipPath>
</defs>
</svg>
