<?xml version="1.0" encoding="utf-8"?>
<!-- Generator: Adobe Illustrator 27.5.0, SVG Export Plug-In . SVG Version: 6.00 Build 0)  -->
<svg version="1.1" id="레이어_1" xmlns="http://www.w3.org/2000/svg" xmlns:xlink="http://www.w3.org/1999/xlink" x="0px"
	 y="0px" viewBox="0 0 530 285" style="enable-background:new 0 0 530 285;" xml:space="preserve">
<style type="text/css">
	.st0{fill:url(#SVGID_1_);}
</style>
<linearGradient id="SVGID_1_" gradientUnits="userSpaceOnUse" x1="40.3159" y1="258.7793" x2="532.316" y2="5.7793" gradientTransform="matrix(1 0 0 -1 0 285.2756)">
	<stop  offset="0" style="stop-color:#96D2F3"/>
	<stop  offset="1" style="stop-color:#D2F396"/>
</linearGradient>
<path class="st0" d="M384.9,90.2h138.7c3.6,0,6.4-2.9,6.4-6.4V6.4c0-3.6-2.9-6.4-6.4-6.4H342.1c-2.8,0-5.5,1.1-7.5,3.2L284,56.4
	L233.4,3.2c-1.9-2-4.6-3.2-7.5-3.2H58.1c-2.8,0-5.5,1.2-7.5,3.2L2.8,53.6C1,55.5,0,58,0,60.6v217c0,3.6,2.9,6.4,6.4,6.4h77.3
	c3.6,0,6.4-2.9,6.4-6.4V102.1c0-5.9,4.8-10.6,10.6-10.6h82.4c5.9,0,10.6,4.8,10.6,10.6v175.6c0,3.6,2.9,6.4,6.4,6.4h77.3
	c3.6,0,6.4-2.9,6.4-6.4v-49.9l50.6,53.1c1.9,2,4.6,3.2,7.5,3.2h181.4c3.6,0,6.4-2.9,6.4-6.4v-77.3c0-3.6-2.9-6.4-6.4-6.4H384.9
	c-5.9,0-10.6-4.8-10.6-10.6v-82.4C374.2,95,379,90.2,384.9,90.2L384.9,90.2z"/>
</svg>
